<svg width="6" height="11" viewBox="0 0 6 11" fill="none" xmlns="http://www.w3.org/2000/svg">
<path d="M5.0625 1.77344C5.0625 1.95313 5.00391 2.10938 4.88672 2.24219C4.77734 2.375 4.64453 2.48438 4.48828 2.57031C4.34766 2.65625 4.20312 2.75 4.05469 2.85156C3.90625 2.94531 3.76953 3.05469 3.64453 3.17969C3.51953 3.29688 3.41797 3.42969 3.33984 3.57812C3.26172 3.72656 3.22266 3.89453 3.22266 4.08203C3.22266 4.24609 3.26172 4.39453 3.33984 4.52734C3.41797 4.66016 3.51172 4.79297 3.62109 4.92578C3.73828 5.05078 3.86328 5.18359 3.99609 5.32422C4.13672 5.45703 4.26172 5.60938 4.37109 5.78125C4.48828 5.94531 4.58594 6.13281 4.66406 6.34375C4.74219 6.55469 4.78125 6.80078 4.78125 7.08203C4.78125 7.27734 4.73828 7.5 4.65234 7.75C4.57422 7.99219 4.46484 8.23828 4.32422 8.48828C4.18359 8.73828 4.01562 8.98047 3.82031 9.21484C3.63281 9.44922 3.42969 9.66016 3.21094 9.84766C3 10.0273 2.77734 10.1719 2.54297 10.2812C2.30859 10.3984 2.08203 10.457 1.86328 10.457C1.62109 10.457 1.40625 10.3906 1.21875 10.2578C1.03125 10.125 0.9375 9.92578 0.9375 9.66016C0.9375 9.48047 0.980469 9.31641 1.06641 9.16797C1.15234 9.01172 1.25781 8.86328 1.38281 8.72266C1.50781 8.58203 1.64453 8.44531 1.79297 8.3125C1.94922 8.17969 2.08984 8.04688 2.21484 7.91406C2.33984 7.78125 2.44531 7.64453 2.53125 7.50391C2.61719 7.35547 2.66016 7.19922 2.66016 7.03516C2.66016 6.80859 2.57812 6.57812 2.41406 6.34375C2.25781 6.10156 2.08203 5.85547 1.88672 5.60547C1.69141 5.34766 1.51172 5.08594 1.34766 4.82031C1.19141 4.55469 1.11328 4.28516 1.11328 4.01172C1.11328 3.67578 1.20312 3.32422 1.38281 2.95703C1.5625 2.58203 1.79297 2.24219 2.07422 1.9375C2.35547 1.625 2.67188 1.36719 3.02344 1.16406C3.375 0.960937 3.72266 0.859375 4.06641 0.859375C4.33984 0.859375 4.57422 0.941406 4.76953 1.10547C4.96484 1.26953 5.0625 1.49219 5.0625 1.77344Z" fill="#7A2745"/>
</svg>
